Coordinates
version=1
nRows=15
nColumns=34
inDegrees=no

Units are S.I. units (second, meters, Newtons, ...)
If the header above contains a line with 'inDegrees', this indicates whether rotational values are in degrees (yes) or radians (no).

endheader
time	pelvis_tilt	pelvis_list	pelvis_rotation	pelvis_tx	pelvis_ty	pelvis_tz	hip_flexion_r	hip_adduction_r	hip_rotation_r	knee_angle_r	ankle_angle_r	subtalar_angle_r	mtp_angle_r	hip_flexion_l	hip_adduction_l	hip_rotation_l	knee_angle_l	ankle_angle_l	subtalar_angle_l	mtp_angle_l	lumbar_extension	lumbar_bending	lumbar_rotation	arm_flex_r	arm_add_r	arm_rot_r	elbow_flex_r	pro_sup_r	arm_flex_l	arm_add_l	arm_rot_l	elbow_flex_l	pro_sup_l
1.38	0.147246	-0.0200961	-0.0965426	1.1195	1.16393	-0.206952	0.181425	0.034835	-0.0440451	0.251197	0.0356457	-0.0548965	-0.0232744	-0.325878	0.0335544	-0.223911	0.0155655	0.118451	0.122589	-0.0920867	-0.512081	-0.306917	-0.18033	-0.364954	-0.168381	-0.0999791	0.780136	2.07458	0.0522647	-0.361511	-0.177171	0.887249	2.0764
1.39	0.145144	-0.0184129	-0.0951717	1.12795	1.16258	-0.207351	0.183549	0.0361659	-0.055434	0.219472	0.0414102	-0.0185077	-0.0233587	-0.332313	0.0361431	-0.224802	0.0156048	0.122824	0.125287	-0.091961	-0.510704	-0.302305	-0.178009	-0.361664	-0.16728	-0.102626	0.781285	2.07333	0.0514075	-0.358855	-0.171069	0.886134	2.0779
1.4	0.143066	-0.0168358	-0.0936394	1.13647	1.1612	-0.207758	0.185522	0.0378068	-0.0658919	0.189087	0.0462486	0.016922	-0.0234429	-0.338632	0.0384667	-0.225769	0.0160669	0.127233	0.128206	-0.0918354	-0.509381	-0.29729	-0.17551	-0.358312	-0.166221	-0.105364	0.782405	2.07253	0.0503633	-0.356094	-0.164761	0.884645	2.07928
1.41	0.141035	-0.0153594	-0.0919456	1.14507	1.1598	-0.208176	0.187336	0.039707	-0.07489	0.160293	0.0499822	0.0501679	-0.0235271	-0.344809	0.0405199	-0.226778	0.0170266	0.131623	0.131283	-0.0917098	-0.508124	-0.29187	-0.172839	-0.354914	-0.165235	-0.108172	0.783491	2.07233	0.0491343	-0.353207	-0.158286	0.882771	2.08053
1.42	0.139059	-0.0139558	-0.090096	1.15375	1.15838	-0.208608	0.189011	0.0417644	-0.0820404	0.133426	0.0525831	0.0802031	-0.0236113	-0.350797	0.0423277	-0.227757	0.018572	0.135922	0.134375	-0.0915844	-0.506935	-0.286064	-0.170009	-0.351488	-0.164347	-0.111042	0.78453	2.07293	0.0477231	-0.350174	-0.151696	0.88051	2.08166
1.43	0.137136	-0.0125718	-0.0881021	1.16253	1.15696	-0.209056	0.190594	0.0438268	-0.0871477	0.108897	0.0541963	0.106323	-0.0236955	-0.356535	0.043949	-0.228596	0.0207998	0.140047	0.137264	-0.0914591	-0.505809	-0.279921	-0.167037	-0.348043	-0.163578	-0.113976	0.785497	2.0746	0.0461338	-0.346978	-0.145052	0.877871	2.08268
1.44	0.135258	-0.0111309	-0.0859813	1.17141	1.15554	-0.209525	0.19215	0.045702	-0.0902324	0.0871595	0.0551251	0.128211	-0.0237796	-0.361955	0.0454762	-0.22916	0.023805	0.143901	0.139684	-0.0913339	-0.504745	-0.273515	-0.163943	-0.344587	-0.162947	-0.11698	0.786364	2.07757	0.0443725	-0.343605	-0.138412	0.874871	2.08358
1.45	0.133428	-0.0095396	-0.0837538	1.18041	1.15413	-0.210018	0.193741	0.0471768	-0.0915161	0.0686512	0.0557767	0.145931	-0.0238637	-0.367011	0.0470251	-0.229305	0.0276682	0.147383	0.141356	-0.0912088	-0.50375	-0.266944	-0.160745	-0.341124	-0.16247	-0.120053	0.787107	2.082	0.0424464	-0.340045	-0.131828	0.871539	2.0843
1.46	0.131669	-0.0077017	-0.0814379	1.18952	1.15276	-0.210542	0.1954	0.0480439	-0.0913682	0.0537125	0.0565766	0.159846	-0.0239477	-0.371689	0.0487182	-0.228905	0.0324431	0.150394	0.142039	-0.0910837	-0.502845	-0.260304	-0.15746	-0.337666	-0.162165	-0.123183	0.787723	2.08789	0.0403638	-0.336293	-0.125329	0.86791	2.08477
1.47	0.130029	-0.00553538	-0.0790435	1.19875	1.15142	-0.2111	0.197099	0.0481333	-0.0902275	0.0424999	0.0578653	0.170475	-0.0240318	-0.376027	0.0506604	-0.227876	0.0381477	0.152846	0.141575	-0.0909588	-0.502074	-0.253682	-0.154098	-0.334233	-0.162052	-0.126348	0.788236	2.095	0.0381318	-0.332346	-0.118921	0.864017	2.08483
1.48	0.128587	-0.00299239	-0.0765651	1.20812	1.15013	-0.211698	0.19873	0.0473426	-0.0885208	0.0349237	0.0597988	0.178349	-0.0241158	-0.380121	0.0529121	-0.226196	0.0447643	0.15467	0.139933	-0.0908339	-0.501497	-0.247123	-0.150663	-0.33086	-0.162149	-0.129517	0.788709	2.10285	0.0357539	-0.328207	-0.112584	0.859891	2.08433
1.49	0.127441	-7.36611e-05	-0.0739767	1.21762	1.1489	-0.21234	0.200103	0.0456585	-0.0866118	0.030647	0.0622786	0.183899	-0.0241998	-0.384111	0.0554661	-0.223921	0.0522498	0.155823	0.137223	-0.0907091	-0.501184	-0.240624	-0.147157	-0.327598	-0.162473	-0.132658	0.789231	2.11076	0.0332266	-0.32388	-0.106278	0.855548	2.08315
1.5	0.126686	0.00316158	-0.0712331	1.22728	1.14774	-0.213027	0.200976	0.0431671	-0.0848013	0.0291847	0.0649337	0.187431	-0.0242837	-0.388148	0.0582314	-0.221179	0.0605568	0.156286	0.133684	-0.0905845	-0.501196	-0.234116	-0.143573	-0.324508	-0.163038	-0.135749	0.789908	2.11804	0.0305359	-0.319374	-0.0999555	0.850989	2.08123
1.51	0.126369	0.0065989	-0.0682771	1.2371	1.14664	-0.213756	0.20111	0.0400455	-0.083342	0.030022	0.0671552	0.189133	-0.0243676	-0.392351	0.0610337	-0.218144	0.0696612	0.15605	0.129625	-0.0904599	-0.501555	-0.227477	-0.139907	-0.321653	-0.163855	-0.138777	0.790824	2.1241	0.0276525	-0.314699	-0.0935766	0.846196	2.07858
1.52	0.126523	0.0100535	-0.0650501	1.24712	1.14565	-0.214517	0.200358	0.0365258	-0.0824126	0.0326963	0.0681695	0.189064	-0.0244515	-0.396719	0.0636392	-0.214966	0.0795786	0.155091	0.125305	-0.0903353	-0.502182	-0.220555	-0.136166	-0.319074	-0.164927	-0.141733	0.79201	2.12864	0.0245241	-0.309872	-0.0871294	0.841135	2.07534
